<svg xmlns="http://www.w3.org/2000/svg" viewBox="0 0 200 400" role="img" aria-label="Female Front Anatomy">

    <style>
      .outline { fill: #ffffff; stroke: #111; stroke-width: 1.2; }
      .muscle { fill: #e5e7eb; stroke: #111; stroke-width: 0.8; cursor: pointer; transition: fill .15s ease; }
      .muscle:hover { fill: #d1d5db; }
      .label { font-family: sans-serif; font-size: 10px; fill: #4b5563; }
    </style>
    
<rect width="200" height="400" fill="#fff"/>
<title>Female Front Anatomy</title>
<path class="outline" d="M92,30 a9,9 0 1,0 18,0 a9,9 0 1,0 -18,0"/>
<path class="outline" d="M78,60 q22,-12 44,0 v68 q0,18 -22,18 h0 q-22,0 -22,-18 z"/>
<path class="outline" d="M82,148 h36 v20 q-18,10 -36,0 z"/>
<path class="outline" d="M85,168 v72 q0,10 10,10 h0 q10,0 10,-10 v-72 z"/>
<path class="outline" d="M115,168 v72 q0,10 10,10 h0 q10,0 10,-10 v-72 z"/>
<path class="outline" d="M68,82 q-10,10 -10,28 v20 q0,14 10,14"/>
<path class="outline" d="M132,82 q10,10 10,28 v20 q0,14 -10,14"/>
<g class="muscle" data-code="deltoids_front" aria-label="سرشانه (جلو)"><ellipse cx="70" cy="86" rx="9" ry="7"/><ellipse cx="130" cy="86" rx="9" ry="7"/></g>
<g class="muscle" data-code="pec_major" aria-label="سینه"><rect x="86" y="72" width="28" height="18" rx="4"/></g>
<g class="muscle" data-code="biceps" aria-label="جلو بازو"><ellipse cx="66" cy="116" rx="7" ry="11"/><ellipse cx="134" cy="116" rx="7" ry="11"/></g>
<g class="muscle" data-code="forearm_flexors" aria-label="ساعد (جلو)"><rect x="56" y="130" width="11" height="23" rx="4"/><rect x="133" y="130" width="11" height="23" rx="4"/></g>
<g class="muscle" data-code="rectus_abdominis" aria-label="راست شکمی"><rect x="92" y="96" width="16" height="32" rx="4"/></g>
<g class="muscle" data-code="external_obliques" aria-label="مورب شکمی"><path d="M86,96 l-7,7 v23 l7,-4 z"/><path d="M114,96 l7,7 v23 l-7,-4 z"/></g>
<g class="muscle" data-code="quads" aria-label="چهارسر"><rect x="86" y="170" width="18" height="38" rx="4"/><rect x="116" y="170" width="18" height="38" rx="4"/></g>
<g class="muscle" data-code="calves_front" aria-label="ساق (جلو)"><rect x="89" y="214" width="12" height="24" rx="4"/><rect x="119" y="214" width="12" height="24" rx="4"/></g>
</svg>