<svg xmlns="http://www.w3.org/2000/svg" viewBox="0 0 200 400" role="img" aria-label="Male Back Anatomy">

    <style>
      .outline { fill: #ffffff; stroke: #111; stroke-width: 1.2; }
      .muscle { fill: #e5e7eb; stroke: #111; stroke-width: 0.8; cursor: pointer; transition: fill .15s ease; }
      .muscle:hover { fill: #d1d5db; }
      .label { font-family: sans-serif; font-size: 10px; fill: #4b5563; }
    </style>
    
<rect width="200" height="400" fill="#fff"/>
<title>Male Back Anatomy</title>
<path class="outline" d="M90,30 a10,10 0 1,0 20,0 a10,10 0 1,0 -20,0"/>
<path class="outline" d="M80,60 q20,-8 40,0 v70 q0,22 -20,22 h0 q-20,0 -20,-22 z"/>
<path class="outline" d="M85,150 h30 v20 q-15,10 -30,0 z"/>
<path class="outline" d="M85,170 v70 q0,10 10,10 h0 q10,0 10,-10 v-70 z"/>
<path class="outline" d="M115,170 v70 q0,10 10,10 h0 q10,0 10,-10 v-70 z"/>
<g class="muscle" data-code="traps" aria-label="ذوزنقه‌ای (پشت)"><path d="M85,60 h30 l-10,20 h-10 z"/></g>
<g class="muscle" data-code="rear_delts" aria-label="سرشانه خلفی"><ellipse cx="70" cy="90" rx="10" ry="8"/><ellipse cx="130" cy="90" rx="10" ry="8"/></g>
<g class="muscle" data-code="lats" aria-label="لتس"><path d="M80,90 q10,20 10,35 h-15 q-8,-15 -5,-30 z"/><path d="M120,90 q-10,20 -10,35 h15 q8,-15 5,-30 z"/></g>
<g class="muscle" data-code="erector_spinae" aria-label="بازکننده‌های ستون فقرات"><rect x="95" y="105" width="10" height="40" rx="3"/></g>
<g class="muscle" data-code="glute" aria-label="سرینی"><rect x="85" y="170" width="20" height="20" rx="6"/><rect x="115" y="170" width="20" height="20" rx="6"/></g>
<g class="muscle" data-code="hamstrings" aria-label="همسترینگ"><rect x="90" y="195" width="14" height="35" rx="4"/><rect x="116" y="195" width="14" height="35" rx="4"/></g>
<g class="muscle" data-code="calves_back" aria-label="ساق (پشت)"><rect x="90" y="235" width="14" height="22" rx="4"/><rect x="116" y="235" width="14" height="22" rx="4"/></g>
</svg>